# Blender v2.71 (sub 0) OBJ File: 'untitled.blend'
# www.blender.org
mtllib piramide.mtl
o Cube_Cube.001
v -3.943730 0.012002 -4.016391
v 3.991102 0.012002 -4.016391
v 3.991102 0.012000 3.992979
v -3.943730 0.012000 3.992979
v -3.285512 1.330602 3.328577
v -3.285511 1.330604 -3.351990
v 3.332883 1.330602 3.328577
v 2.669272 2.660008 -2.682145
v 2.669272 2.660008 0.038979
v 3.332883 1.330604 -3.351990
v -2.621901 2.660008 -2.682145
v -2.621901 2.660008 2.658732
v -2.621901 2.660008 0.038979
v 2.669272 2.660008 2.658732
v 2.006964 3.986804 -2.013614
v 2.006964 3.986804 0.038978
v -1.959592 3.986804 -2.013614
v -1.959592 3.986804 1.990203
v -1.959592 3.986804 0.038979
v 2.006964 3.986804 1.990203
v 1.344675 5.313560 -1.345104
v 1.344675 5.313560 0.038978
v -1.297304 5.313560 1.321693
v -1.297304 5.313560 0.038979
v 1.344675 5.313560 1.321693
v 0.679011 6.647079 -0.673186
v -1.297304 5.313560 -1.345104
v -0.631639 6.647079 -0.673186
v -0.631639 6.647079 0.649775
v 0.679011 6.647079 0.649775
v 0.023686 7.959885 -0.011705
v 2.669272 2.660008 -0.148553
v -2.621901 2.660008 -0.148553
v 2.006964 3.986804 -0.148554
v -1.959592 3.986804 -0.148553
v 1.344675 5.313560 -0.148553
v -1.297304 5.313560 -0.148552
vn 0.000000 -1.000000 -0.000000
vn -0.894700 0.446600 0.000000
vn 0.000000 0.450000 -0.893000
vn 0.894700 0.446600 0.000000
vn 0.000000 0.450000 0.893000
vn 0.000000 -0.000000 1.000000
vn 1.000000 0.000000 0.000000
vn -1.000000 0.000000 0.000000
vn -0.025300 -0.999700 0.000000
vn 0.000000 1.000000 0.000000
vn -0.000000 0.000000 -1.000000
usemtl piramide_cristal
s off
f 1//1 2//1 3//1
f 1//2 4//2 5//2
f 2//3 1//3 6//3
f 7//4 3//4 2//4
f 4//5 3//5 7//5
f 8//4 9//4 10//4
f 10//3 6//3 11//3
f 12//2 13//2 5//2
f 5//5 7//5 14//5
f 8//4 15//4 16//4
f 8//3 11//3 17//3
f 12//2 18//2 19//2
f 12//5 14//5 20//5
f 15//4 21//4 22//4
f 21//3 15//3 17//3
f 18//2 23//2 24//2
f 18//5 20//5 25//5
f 21//4 26//4 22//4
f 21//3 27//3 28//3
f 23//2 29//2 24//2
f 23//5 25//5 30//5
f 31//4 30//4 26//4
f 31//3 26//3 28//3
f 31//2 28//2 29//2
f 31//5 29//5 30//5
f 17//1 15//1 16//1
f 11//1 8//1 9//1
f 13//6 16//6 19//6
f 24//6 16//6 22//6
f 10//1 7//1 5//1
f 27//1 21//1 22//1
f 30//1 29//1 28//1
f 4//1 1//1 3//1
f 6//2 1//2 5//2
f 10//3 2//3 6//3
f 10//4 7//4 2//4
f 5//5 4//5 7//5
f 9//4 14//4 7//4
f 8//3 10//3 11//3
f 13//2 11//2 6//2
f 9//4 7//4 10//4
f 12//5 5//5 14//5
f 16//4 20//4 14//4
f 13//2 6//2 5//2
f 14//7 9//7 8//7
f 15//3 8//3 17//3
f 14//4 8//4 16//4
f 19//2 17//2 11//2
f 18//5 12//5 20//5
f 11//2 12//2 19//2
f 22//4 25//4 20//4
f 20//8 16//8 15//8
f 27//3 21//3 17//3
f 20//4 15//4 22//4
f 24//2 27//2 17//2
f 23//5 18//5 25//5
f 17//2 18//2 24//2
f 25//4 22//4 30//4
f 26//3 21//3 28//3
f 22//4 26//4 30//4
f 27//2 24//2 28//2
f 29//5 23//5 30//5
f 24//2 29//2 28//2
f 16//1 20//1 18//1
f 18//9 19//9 17//9
f 9//1 14//1 12//1
f 18//1 17//1 16//1
f 12//7 13//7 11//7
f 9//6 16//6 13//6
f 12//1 11//1 9//1
f 19//6 16//6 24//6
f 6//1 10//1 5//1
f 22//1 25//1 23//1
f 23//10 24//10 27//10
f 26//1 30//1 28//1
f 22//1 23//1 27//1
f 33//11 35//11 34//11
f 37//11 36//11 34//11
f 32//11 33//11 34//11
f 35//11 37//11 34//11
f 22//4 16//4 34//4
f 24//2 37//2 35//2
f 24//10 22//10 36//10
f 9//4 32//4 34//4
f 19//2 35//2 33//2
f 13//1 33//1 32//1
f 36//4 22//4 34//4
f 19//2 24//2 35//2
f 37//10 24//10 36//10
f 16//4 9//4 34//4
f 13//2 19//2 33//2
f 9//1 13//1 32//1
